<svg xmlns="http://www.w3.org/2000/svg" xmlns:xlink="http://www.w3.org/1999/xlink" version="1.1" x="0px" y="0px" width="100px" height="100px" viewBox="5.0 -10.0 100.0 135.0" enable-background="new 0 0 100 100" xml:space="preserve">
<g id="Captions">
</g>
<g id="Your_Icon">
	<g>
		<path d="M33.282,88.16c-6.388,0-12.522-2.896-15.635-7.375c-6.837-9.847-7-10.217-11.17-19.695    c-0.953-2.165-2.115-4.81-3.616-8.157l-0.116-0.255l0.096-0.263c0.126-0.351,12.968-34.979,45.401-40.639    c0.075-0.026,3.807-1.128,8.958-1.128c6.524,0,15.626,1.807,21.958,10.397c0.794,0.741,8.316,8.191,4.969,21.725l-0.11,0.441    l-0.449,0.075c-0.628,0.103-1.249,0.156-1.847,0.157c-8.037,0-10.52-9.354-10.544-9.45c-3.169-13.496-9.783-17.139-13.801-18.072    c4.715,3.107,8.398,9.475,9.571,15.033c1.063,5.033,0.119,9.164-2.589,11.331c-6.441,5.162-9.407,19.085-9.725,20.655    l-0.067,0.342l-0.317,0.147c-2.698,1.264-5.621,3.828-8.688,7.622l-0.434,0.536l-1.049-0.898    c-0.134-0.229-0.268-0.455-0.401-0.683c0.291,0.643,0.549,1.269,0.773,1.883c1.402,3.796,1.575,7.096,0.512,9.805    C43.374,85.743,39.009,88.16,33.282,88.16z M4.24,52.627c1.447,3.228,2.577,5.794,3.505,7.905    c4.117,9.362,4.279,9.728,11.039,19.463c2.816,4.056,8.644,6.781,14.498,6.781c5.135,0,9.019-2.089,10.392-5.586    c0.934-2.382,0.759-5.352-0.523-8.822c-0.729-1.996-1.842-4.172-3.305-6.467c-15.745-24.681-9.905-36.301-9.648-36.783    l2.223-4.187l-0.933,4.648c-0.026,0.129-2.366,13.022,13.522,39.963c2.897-3.471,5.697-5.895,8.337-7.214    c0.692-3.291,3.713-15.967,10.146-21.122c2.286-1.834,3.053-5.464,2.102-9.965c-1.362-6.449-6.236-14.038-12.036-15.574    l-3.066-0.813l3.125-0.539c0.049-0.008,0.492-0.081,1.235-0.081c3.075,0,13.438,1.403,17.67,19.432    c0.085,0.328,2.241,8.393,9.198,8.393c0.382-0.001,0.773-0.024,1.172-0.072c2.972-12.888-4.636-19.891-4.714-19.96l-0.097-0.106    c-5.99-8.171-14.662-9.887-20.881-9.887c-4.937,0-8.605,1.079-8.643,1.091C18.316,18.403,5.472,49.469,4.24,52.627z     M30.392,37.158c0.219,5.67,2.277,14.657,10.081,27.143C33.82,51.861,31.286,42.899,30.392,37.158z M55.127,40.558L55.127,40.558    c-1.982,0-2.793-0.918-2.878-1.021l-0.09-0.142c-1.144-2.39-0.823-5.054-0.809-5.167l0.026-0.205l0.135-0.158    c1.231-1.434,3.03-2.192,5.196-2.192c1.533,0,2.712,0.382,2.76,0.398l0.263,0.084l0.129,0.24c1.421,2.595-0.319,6.692-0.395,6.865    l-0.11,0.257l-0.258,0.108C57.619,40.244,56.283,40.558,55.127,40.558z M53.36,38.694c0.142,0.117,0.662,0.479,1.766,0.479h0.001    c0.904,0,1.971-0.241,3.17-0.717c0.435-1.126,1.114-3.584,0.471-5.145c-0.391-0.098-1.158-0.254-2.06-0.254    c-1.69,0-3.036,0.521-4.002,1.55C52.664,35.212,52.611,37.052,53.36,38.694z M79.354,38.937L79.354,38.937    c-0.696,0-1.445-0.126-2.225-0.377l-0.295-0.095l-0.126-0.283c-0.04-0.088-0.983-2.234-0.857-4.647l0.011-0.182l0.097-0.152    c0.07-0.114,1.784-2.771,4.615-2.771c0.561,0,1.13,0.107,1.689,0.319l0.268,0.101l0.118,0.258    c0.089,0.192,2.128,4.724-0.304,6.757C82.326,37.899,81.38,38.937,79.354,38.937z M77.859,37.333    c0.529,0.146,1.031,0.22,1.494,0.22c1.39,0,2.003-0.653,2.028-0.68c1.416-1.192,0.463-4.037,0.117-4.922    c-0.312-0.091-0.623-0.138-0.926-0.138c-1.744,0-2.995,1.51-3.347,1.985C77.188,35.329,77.643,36.746,77.859,37.333z"/>
	</g>
	<path d="M33.371,88.846c-5.755,0-12.67-2.45-16.293-7.667C10.203,71.28,10.04,70.906,5.844,61.368   c-0.951-2.165-2.114-4.807-3.615-8.151L2,52.705l0.19-0.526c0.127-0.352,13.094-35.305,45.862-41.071   c1.484-0.41,20.658-5.328,31.625,9.479c1.047,0.998,8.196,8.395,5.314,21.522l8.269,7.23c0.775,0.357,2.933,1.566,4.075,4.409   c1.465,3.639,0.733,8.427-2.174,14.235c-0.737,1.375-2.947,3.595-6.146,2.424c-1.3-0.463-2.646-1.485-4.005-3.04   c-2.282,1.392-7.801,4.297-13.632,3.856c-4.863-0.379-8.763-2.921-11.6-7.556c-0.493-0.276-2.239-1.006-5.237,0.392   c-2.602,1.218-5.441,3.716-8.442,7.429l-0.181,0.229c-0.181,0.23-0.364,0.464-0.549,0.701c1.208,3.643,1.289,6.847,0.237,9.53   c-1.463,3.729-5.133,6.197-10.066,6.774C34.846,88.805,34.117,88.846,33.371,88.846z M4.993,52.61   c1.389,3.105,2.482,5.59,3.386,7.643c4.171,9.485,4.252,9.668,10.975,19.348c3.469,4.996,10.616,6.992,15.866,6.373   c2.283-0.268,6.334-1.278,7.81-5.036c0.871-2.221,0.693-5.023-0.528-8.331c-0.714-1.949-1.804-4.079-3.24-6.331   c-15.959-25.019-9.938-36.984-9.675-37.482l4.54-8.547l-1.961,9.479c-0.024,0.115-2.214,12.578,12.95,38.628   c2.859-3.292,5.627-5.573,8.252-6.801c5.213-2.434,8.202-0.025,8.327,0.078l0.184,0.153l0.121,0.205   c2.363,3.985,5.589,6.163,9.59,6.476c6.449,0.474,12.84-4.016,12.903-4.06l1.087-0.773l0.814,1.056   c1.621,2.104,2.831,2.854,3.562,3.114c1.688,0.617,2.591-0.812,2.756-1.104c2.455-4.907,3.184-9.024,2.083-11.851   c-0.892-2.286-2.682-2.992-2.757-3.02l-0.232-0.089l-0.201-0.168l-9.697-8.48l0.203-0.819c3.143-12.697-4.089-19.448-4.396-19.73   l-0.189-0.209c-10.173-13.877-28.012-8.768-28.768-8.544l-0.157,0.037C19.499,18.901,6.696,48.358,4.993,52.61z"/>
	<path d="M80.975,73.51c-2.294,0-4.722-0.693-6.941-2.708c-0.565-0.516-0.609-1.39-0.096-1.957c0.515-0.566,1.391-0.607,1.957-0.093   c5.002,4.544,11.812-0.066,12.746-0.739c0.543-0.469,1.365-0.444,1.881,0.07c0.541,0.542,0.541,1.417,0,1.958   c-0.044,0.047-0.144,0.13-0.191,0.168C89.673,70.688,85.602,73.51,80.975,73.51z"/>
	<path d="M88.569,62.067c-0.301,0-0.613-0.046-0.946-0.141c-0.208,0.073-0.486,0.134-0.824,0.134c-0.508,0-1.288-0.147-2.12-0.861   c-0.919-0.785-0.762-2.01-0.646-2.901c0.012-0.074,0.021-0.163,0.031-0.252c-0.108,0.035-0.235,0.08-0.383,0.138   c-2.333,0.911-4.15-0.178-4.273-2.235c-0.141-2.328,1.791-5.187,4.587-5.522c1.304-0.156,2.698-0.31,4.154-0.31   c6.145,0,7.516,2.974,7.585,5.467c0.054,1.862-0.189,2.931-0.812,3.572c-0.353,0.365-0.823,0.567-1.319,0.567   c-1.185,0-2.086-1.116-2.588-2.058c-0.095,0.141-0.16,0.307-0.123,0.47c0.104,0.46,0.373,2.018-0.476,3.078   C89.975,61.764,89.318,62.067,88.569,62.067z M86.782,56.771l1.534,0.12c0.132-0.348,0.321-0.679,0.567-0.99   c0.667-0.841,1.633-1.363,2.517-1.363c0.638,0,1.189,0.271,1.541,0.727c-0.103-0.932-0.702-2.38-4.793-2.38   c-1.303,0-2.604,0.143-3.823,0.288c-0.666,0.081-1.323,0.573-1.762,1.317c-0.305,0.523-0.4,1-0.397,1.257   c0.116-0.016,0.278-0.054,0.504-0.142c2.057-0.808,3.182-0.27,3.644,0.258C86.559,56.14,86.704,56.45,86.782,56.771z"/>
	<path d="M53.947,64.257c-0.765,0-1.386-0.619-1.386-1.384c0-0.086,0.017-0.242,0.033-0.327c0.546-2.701,3.598-16.377,10.465-21.879   c2.075-1.663,2.752-5.046,1.857-9.283c-1.319-6.243-5.995-13.58-11.535-15.047l-6.138-1.624l6.257-1.078   c0.143-0.026,14.504-2.234,19.693,19.872c0.089,0.34,2.425,8.99,10.035,7.73c0.753-0.124,1.466,0.386,1.591,1.142   c0.124,0.754-0.385,1.466-1.14,1.592c-8.101,1.334-12.16-5.829-13.175-9.804c-2.16-9.2-5.905-13.692-9.284-15.865   c3.206,3.488,5.507,8.262,6.404,12.512c1.118,5.295,0.084,9.675-2.836,12.014c-6.182,4.954-9.102,18.406-9.467,20.197   C55.249,63.717,54.66,64.257,53.947,64.257z"/>
	<path d="M69.655,82.828H44.318c-0.766,0-1.398-0.621-1.398-1.385c0-0.765,0.608-1.385,1.373-1.385H67.63   c-1.091-3.506-1.326-8.61,3.147-11.17c0.663-0.38,1.51-0.149,1.89,0.513c0.379,0.664,0.148,1.511-0.515,1.89   c-4.54,2.6-1.387,9.266-1.251,9.548l0.96,1.987L69.655,82.828z"/>
	<path d="M55.127,41.251L55.127,41.251c-2.252,0-3.238-1.062-3.413-1.276l-0.18-0.28c-1.229-2.57-0.888-5.431-0.871-5.553   l0.053-0.412l0.271-0.315c1.366-1.593,3.346-2.434,5.721-2.434c1.613,0,2.841,0.388,2.978,0.432l0.52,0.171l0.264,0.481   c1.553,2.837-0.167,7.007-0.367,7.473l-0.223,0.513l-0.516,0.214C57.8,40.919,56.375,41.251,55.127,41.251z M53.92,38.249   c0.146,0.072,0.522,0.231,1.206,0.231h0.001c0.748,0,1.629-0.188,2.627-0.558c0.352-1.01,0.8-2.791,0.482-4.021   c-0.383-0.074-0.924-0.153-1.528-0.153c-1.392,0-2.507,0.392-3.326,1.161C53.357,35.586,53.387,36.973,53.92,38.249z"/>
	<path d="M79.354,39.628c-0.77,0-1.59-0.138-2.438-0.41l-0.588-0.189l-0.252-0.565c-0.044-0.095-1.052-2.388-0.917-4.965l0.02-0.362   l0.194-0.308c0.079-0.124,1.993-3.091,5.2-3.091c0.644,0,1.295,0.122,1.934,0.362l0.532,0.201l0.238,0.518   c0.242,0.526,2.267,5.178-0.427,7.523C82.507,38.684,81.38,39.628,79.354,39.628z M78.39,36.751   c0.341,0.073,0.663,0.109,0.964,0.109c1.05,0,1.51-0.447,1.528-0.467l0.132-0.127c0.75-0.626,0.415-2.486-0.023-3.726   c-1.45-0.242-2.624,0.937-3.073,1.496C77.925,35.126,78.191,36.143,78.39,36.751z"/>
	<path d="M57.424,38.114c0,0-0.595-0.23-0.778-1.146c-0.185-0.917-0.255-0.942-0.32-1.604c-0.067-0.663-0.051-1.853,0.755-2.095   c0.804-0.243,2.305,1.414,2.305,2.735c0,0.484-0.13,0.928-0.372,1.282C58.653,37.813,58.075,38.114,57.424,38.114z"/>
	<path d="M80.701,36.384c0,0-0.504-0.194-0.658-0.969c-0.156-0.775-0.216-0.796-0.272-1.357c-0.057-0.559-0.043-1.564,0.638-1.77   c0.679-0.206,1.948,1.196,1.948,2.314c0,0.407-0.108,0.78-0.314,1.081C81.739,36.129,81.249,36.384,80.701,36.384z"/>
</g>
<text x="0.0" y="117.5" font-size="5.0" font-weight="bold" font-family="Helvetica Neue, Helvetica, Arial-Unicode, Arial, Sans-serif" fill="#000000">Created by Denora Daujatas</text><text x="0.0" y="122.5" font-size="5.0" font-weight="bold" font-family="Helvetica Neue, Helvetica, Arial-Unicode, Arial, Sans-serif" fill="#000000">from the Noun Project</text></svg>